<mxfile host="Electron" agent="Mozilla/5.0 (Windows NT 10.0; Win64; x64) AppleWebKit/537.36 (KHTML, like Gecko) draw.io/25.0.2 Chrome/128.0.6613.186 Electron/32.2.5 Safari/537.36" version="25.0.2">
  <diagram name="Page-1" id="c37626ed-c26b-45fb-9056-f9ebc6bb27b6">
    <mxGraphModel dx="1436" dy="968" grid="1" gridSize="10" guides="1" tooltips="1" connect="1" arrows="1" fold="1" page="1" pageScale="1" pageWidth="1100" pageHeight="850" background="none" math="0" shadow="0">
      <root>
        <mxCell id="0" />
        <mxCell id="1" parent="0" />
        <mxCell id="c2ib2R5SYT6zTNgJE4Cd-11" value="" style="rounded=1;whiteSpace=wrap;html=1;fillColor=#575757;gradientColor=none;strokeColor=#030303;" vertex="1" parent="1">
          <mxGeometry x="560" y="47" width="468" height="840" as="geometry" />
        </mxCell>
        <mxCell id="c2ib2R5SYT6zTNgJE4Cd-10" value="" style="rounded=1;whiteSpace=wrap;html=1;fillColor=#575757;strokeColor=#0A0A0A;" vertex="1" parent="1">
          <mxGeometry x="50" y="47" width="468" height="840" as="geometry" />
        </mxCell>
        <mxCell id="CcqRgjcuu0jam1b1uMW6-3" value="" style="shape=mxgraph.cisco.switches.workgroup_switch;sketch=0;html=1;pointerEvents=1;dashed=0;fillColor=#036897;strokeColor=#ffffff;strokeWidth=2;verticalLabelPosition=bottom;verticalAlign=top;align=center;outlineConnect=0;" parent="1" vertex="1">
          <mxGeometry x="680" y="452" width="101" height="50" as="geometry" />
        </mxCell>
        <mxCell id="CcqRgjcuu0jam1b1uMW6-4" value="" style="shape=mxgraph.cisco.routers.router;sketch=0;html=1;pointerEvents=1;dashed=0;fillColor=#036897;strokeColor=#ffffff;strokeWidth=2;verticalLabelPosition=bottom;verticalAlign=top;align=center;outlineConnect=0;" parent="1" vertex="1">
          <mxGeometry x="500" y="244" width="78" height="53" as="geometry" />
        </mxCell>
        <mxCell id="CcqRgjcuu0jam1b1uMW6-5" value="" style="shape=mxgraph.cisco.switches.workgroup_switch;sketch=0;html=1;pointerEvents=1;dashed=0;fillColor=#036897;strokeColor=#ffffff;strokeWidth=2;verticalLabelPosition=bottom;verticalAlign=top;align=center;outlineConnect=0;" parent="1" vertex="1">
          <mxGeometry x="290" y="452" width="101" height="50" as="geometry" />
        </mxCell>
        <mxCell id="CcqRgjcuu0jam1b1uMW6-6" value="" style="shape=mxgraph.cisco.computers_and_peripherals.pc;sketch=0;html=1;pointerEvents=1;dashed=0;fillColor=#036897;strokeColor=#ffffff;strokeWidth=2;verticalLabelPosition=bottom;verticalAlign=top;align=center;outlineConnect=0;" parent="1" vertex="1">
          <mxGeometry x="90" y="58" width="78" height="70" as="geometry" />
        </mxCell>
        <mxCell id="CcqRgjcuu0jam1b1uMW6-8" value="" style="shape=mxgraph.cisco.computers_and_peripherals.pc;sketch=0;html=1;pointerEvents=1;dashed=0;fillColor=#036897;strokeColor=#ffffff;strokeWidth=2;verticalLabelPosition=bottom;verticalAlign=top;align=center;outlineConnect=0;" parent="1" vertex="1">
          <mxGeometry x="90" y="147" width="78" height="70" as="geometry" />
        </mxCell>
        <mxCell id="CcqRgjcuu0jam1b1uMW6-9" value="" style="shape=mxgraph.cisco.computers_and_peripherals.pc;sketch=0;html=1;pointerEvents=1;dashed=0;fillColor=#036897;strokeColor=#ffffff;strokeWidth=2;verticalLabelPosition=bottom;verticalAlign=top;align=center;outlineConnect=0;" parent="1" vertex="1">
          <mxGeometry x="90" y="227" width="78" height="70" as="geometry" />
        </mxCell>
        <mxCell id="CcqRgjcuu0jam1b1uMW6-10" value="" style="shape=mxgraph.cisco.computers_and_peripherals.pc;sketch=0;html=1;pointerEvents=1;dashed=0;fillColor=#036897;strokeColor=#ffffff;strokeWidth=2;verticalLabelPosition=bottom;verticalAlign=top;align=center;outlineConnect=0;" parent="1" vertex="1">
          <mxGeometry x="90" y="307" width="78" height="70" as="geometry" />
        </mxCell>
        <mxCell id="CcqRgjcuu0jam1b1uMW6-11" value="" style="shape=mxgraph.cisco.computers_and_peripherals.pc;sketch=0;html=1;pointerEvents=1;dashed=0;fillColor=#036897;strokeColor=#ffffff;strokeWidth=2;verticalLabelPosition=bottom;verticalAlign=top;align=center;outlineConnect=0;" parent="1" vertex="1">
          <mxGeometry x="90" y="387" width="78" height="70" as="geometry" />
        </mxCell>
        <mxCell id="CcqRgjcuu0jam1b1uMW6-12" value="" style="shape=mxgraph.cisco.computers_and_peripherals.laptop;sketch=0;html=1;pointerEvents=1;dashed=0;fillColor=#036897;strokeColor=#ffffff;strokeWidth=2;verticalLabelPosition=bottom;verticalAlign=top;align=center;outlineConnect=0;" parent="1" vertex="1">
          <mxGeometry x="77" y="467" width="90" height="61" as="geometry" />
        </mxCell>
        <mxCell id="CcqRgjcuu0jam1b1uMW6-13" value="" style="shape=mxgraph.cisco.computers_and_peripherals.laptop;sketch=0;html=1;pointerEvents=1;dashed=0;fillColor=#036897;strokeColor=#ffffff;strokeWidth=2;verticalLabelPosition=bottom;verticalAlign=top;align=center;outlineConnect=0;" parent="1" vertex="1">
          <mxGeometry x="78" y="547" width="90" height="61" as="geometry" />
        </mxCell>
        <mxCell id="CcqRgjcuu0jam1b1uMW6-14" value="" style="shape=mxgraph.cisco.computers_and_peripherals.laptop;sketch=0;html=1;pointerEvents=1;dashed=0;fillColor=#036897;strokeColor=#ffffff;strokeWidth=2;verticalLabelPosition=bottom;verticalAlign=top;align=center;outlineConnect=0;" parent="1" vertex="1">
          <mxGeometry x="77" y="627" width="90" height="61" as="geometry" />
        </mxCell>
        <mxCell id="CcqRgjcuu0jam1b1uMW6-15" value="" style="shape=mxgraph.cisco.computers_and_peripherals.laptop;sketch=0;html=1;pointerEvents=1;dashed=0;fillColor=#036897;strokeColor=#ffffff;strokeWidth=2;verticalLabelPosition=bottom;verticalAlign=top;align=center;outlineConnect=0;" parent="1" vertex="1">
          <mxGeometry x="77" y="707" width="90" height="61" as="geometry" />
        </mxCell>
        <mxCell id="CcqRgjcuu0jam1b1uMW6-25" value="" style="shape=mxgraph.cisco.computers_and_peripherals.pc;sketch=0;html=1;pointerEvents=1;dashed=0;fillColor=#036897;strokeColor=#ffffff;strokeWidth=2;verticalLabelPosition=bottom;verticalAlign=top;align=center;outlineConnect=0;" parent="1" vertex="1">
          <mxGeometry x="929" y="68" width="78" height="70" as="geometry" />
        </mxCell>
        <mxCell id="CcqRgjcuu0jam1b1uMW6-26" value="" style="shape=mxgraph.cisco.computers_and_peripherals.pc;sketch=0;html=1;pointerEvents=1;dashed=0;fillColor=#036897;strokeColor=#ffffff;strokeWidth=2;verticalLabelPosition=bottom;verticalAlign=top;align=center;outlineConnect=0;" parent="1" vertex="1">
          <mxGeometry x="926" y="147" width="78" height="70" as="geometry" />
        </mxCell>
        <mxCell id="CcqRgjcuu0jam1b1uMW6-27" value="" style="shape=mxgraph.cisco.computers_and_peripherals.pc;sketch=0;html=1;pointerEvents=1;dashed=0;fillColor=#036897;strokeColor=#ffffff;strokeWidth=2;verticalLabelPosition=bottom;verticalAlign=top;align=center;outlineConnect=0;" parent="1" vertex="1">
          <mxGeometry x="926" y="227" width="78" height="70" as="geometry" />
        </mxCell>
        <mxCell id="CcqRgjcuu0jam1b1uMW6-28" value="" style="shape=mxgraph.cisco.computers_and_peripherals.pc;sketch=0;html=1;pointerEvents=1;dashed=0;fillColor=#036897;strokeColor=#ffffff;strokeWidth=2;verticalLabelPosition=bottom;verticalAlign=top;align=center;outlineConnect=0;" parent="1" vertex="1">
          <mxGeometry x="926" y="307" width="78" height="70" as="geometry" />
        </mxCell>
        <mxCell id="CcqRgjcuu0jam1b1uMW6-29" value="" style="shape=mxgraph.cisco.computers_and_peripherals.pc;sketch=0;html=1;pointerEvents=1;dashed=0;fillColor=#036897;strokeColor=#ffffff;strokeWidth=2;verticalLabelPosition=bottom;verticalAlign=top;align=center;outlineConnect=0;" parent="1" vertex="1">
          <mxGeometry x="926" y="387" width="78" height="70" as="geometry" />
        </mxCell>
        <mxCell id="CcqRgjcuu0jam1b1uMW6-30" value="" style="shape=mxgraph.cisco.computers_and_peripherals.laptop;sketch=0;html=1;pointerEvents=1;dashed=0;fillColor=#036897;strokeColor=#ffffff;strokeWidth=2;verticalLabelPosition=bottom;verticalAlign=top;align=center;outlineConnect=0;" parent="1" vertex="1">
          <mxGeometry x="914" y="467" width="90" height="61" as="geometry" />
        </mxCell>
        <mxCell id="CcqRgjcuu0jam1b1uMW6-31" value="" style="shape=mxgraph.cisco.computers_and_peripherals.laptop;sketch=0;html=1;pointerEvents=1;dashed=0;fillColor=#036897;strokeColor=#ffffff;strokeWidth=2;verticalLabelPosition=bottom;verticalAlign=top;align=center;outlineConnect=0;" parent="1" vertex="1">
          <mxGeometry x="914" y="547" width="90" height="61" as="geometry" />
        </mxCell>
        <mxCell id="CcqRgjcuu0jam1b1uMW6-32" value="" style="shape=mxgraph.cisco.computers_and_peripherals.laptop;sketch=0;html=1;pointerEvents=1;dashed=0;fillColor=#036897;strokeColor=#ffffff;strokeWidth=2;verticalLabelPosition=bottom;verticalAlign=top;align=center;outlineConnect=0;" parent="1" vertex="1">
          <mxGeometry x="913" y="627" width="90" height="61" as="geometry" />
        </mxCell>
        <mxCell id="CcqRgjcuu0jam1b1uMW6-33" value="" style="shape=mxgraph.cisco.computers_and_peripherals.laptop;sketch=0;html=1;pointerEvents=1;dashed=0;fillColor=#036897;strokeColor=#ffffff;strokeWidth=2;verticalLabelPosition=bottom;verticalAlign=top;align=center;outlineConnect=0;" parent="1" vertex="1">
          <mxGeometry x="913" y="707" width="90" height="61" as="geometry" />
        </mxCell>
        <mxCell id="TWZn_f3_A86rQGEhpxx3-1" value="" style="endArrow=none;html=1;rounded=0;entryX=0;entryY=0.5;entryDx=0;entryDy=0;entryPerimeter=0;exitX=0.83;exitY=0.5;exitDx=0;exitDy=0;exitPerimeter=0;" parent="1" source="CcqRgjcuu0jam1b1uMW6-6" target="CcqRgjcuu0jam1b1uMW6-5" edge="1">
          <mxGeometry width="50" height="50" relative="1" as="geometry">
            <mxPoint x="570" y="467" as="sourcePoint" />
            <mxPoint x="620" y="417" as="targetPoint" />
          </mxGeometry>
        </mxCell>
        <mxCell id="6IX21JZKE8CMq9LOXgGr-6" value="" style="endArrow=none;html=1;rounded=0;entryX=0;entryY=0.5;entryDx=0;entryDy=0;entryPerimeter=0;exitX=0.95;exitY=0.5;exitDx=0;exitDy=0;exitPerimeter=0;" parent="1" source="CcqRgjcuu0jam1b1uMW6-12" target="CcqRgjcuu0jam1b1uMW6-5" edge="1">
          <mxGeometry width="50" height="50" relative="1" as="geometry">
            <mxPoint x="570" y="467" as="sourcePoint" />
            <mxPoint x="620" y="417" as="targetPoint" />
          </mxGeometry>
        </mxCell>
        <mxCell id="6IX21JZKE8CMq9LOXgGr-7" value="" style="endArrow=none;html=1;rounded=0;entryX=0;entryY=0.5;entryDx=0;entryDy=0;entryPerimeter=0;exitX=0.95;exitY=0.5;exitDx=0;exitDy=0;exitPerimeter=0;" parent="1" source="CcqRgjcuu0jam1b1uMW6-13" target="CcqRgjcuu0jam1b1uMW6-5" edge="1">
          <mxGeometry width="50" height="50" relative="1" as="geometry">
            <mxPoint x="570" y="467" as="sourcePoint" />
            <mxPoint x="620" y="417" as="targetPoint" />
          </mxGeometry>
        </mxCell>
        <mxCell id="6IX21JZKE8CMq9LOXgGr-8" value="" style="endArrow=none;html=1;rounded=0;entryX=0;entryY=0.5;entryDx=0;entryDy=0;entryPerimeter=0;exitX=0.95;exitY=0.5;exitDx=0;exitDy=0;exitPerimeter=0;" parent="1" source="CcqRgjcuu0jam1b1uMW6-14" target="CcqRgjcuu0jam1b1uMW6-5" edge="1">
          <mxGeometry width="50" height="50" relative="1" as="geometry">
            <mxPoint x="570" y="467" as="sourcePoint" />
            <mxPoint x="620" y="417" as="targetPoint" />
          </mxGeometry>
        </mxCell>
        <mxCell id="6IX21JZKE8CMq9LOXgGr-10" value="" style="endArrow=none;html=1;rounded=0;exitX=0;exitY=0.5;exitDx=0;exitDy=0;exitPerimeter=0;entryX=0.95;entryY=0.5;entryDx=0;entryDy=0;entryPerimeter=0;" parent="1" source="CcqRgjcuu0jam1b1uMW6-5" target="CcqRgjcuu0jam1b1uMW6-15" edge="1">
          <mxGeometry width="50" height="50" relative="1" as="geometry">
            <mxPoint x="390" y="267" as="sourcePoint" />
            <mxPoint x="620" y="417" as="targetPoint" />
          </mxGeometry>
        </mxCell>
        <mxCell id="6IX21JZKE8CMq9LOXgGr-11" value="" style="endArrow=none;html=1;rounded=0;entryX=0.98;entryY=0.5;entryDx=0;entryDy=0;entryPerimeter=0;exitX=0.16;exitY=0.5;exitDx=0;exitDy=0;exitPerimeter=0;" parent="1" source="CcqRgjcuu0jam1b1uMW6-25" target="CcqRgjcuu0jam1b1uMW6-3" edge="1">
          <mxGeometry width="50" height="50" relative="1" as="geometry">
            <mxPoint x="570" y="467" as="sourcePoint" />
            <mxPoint x="620" y="417" as="targetPoint" />
          </mxGeometry>
        </mxCell>
        <mxCell id="6IX21JZKE8CMq9LOXgGr-13" value="" style="endArrow=none;html=1;rounded=0;entryX=0.98;entryY=0.5;entryDx=0;entryDy=0;entryPerimeter=0;exitX=0.28;exitY=0.5;exitDx=0;exitDy=0;exitPerimeter=0;" parent="1" source="CcqRgjcuu0jam1b1uMW6-33" target="CcqRgjcuu0jam1b1uMW6-3" edge="1">
          <mxGeometry width="50" height="50" relative="1" as="geometry">
            <mxPoint x="570" y="467" as="sourcePoint" />
            <mxPoint x="620" y="417" as="targetPoint" />
          </mxGeometry>
        </mxCell>
        <mxCell id="6IX21JZKE8CMq9LOXgGr-15" value="" style="endArrow=none;html=1;rounded=0;entryX=0.98;entryY=0.5;entryDx=0;entryDy=0;entryPerimeter=0;exitX=0.28;exitY=0.5;exitDx=0;exitDy=0;exitPerimeter=0;" parent="1" source="CcqRgjcuu0jam1b1uMW6-31" target="CcqRgjcuu0jam1b1uMW6-3" edge="1">
          <mxGeometry width="50" height="50" relative="1" as="geometry">
            <mxPoint x="570" y="467" as="sourcePoint" />
            <mxPoint x="620" y="417" as="targetPoint" />
          </mxGeometry>
        </mxCell>
        <mxCell id="6IX21JZKE8CMq9LOXgGr-16" value="" style="endArrow=none;html=1;rounded=0;entryX=0.98;entryY=0.5;entryDx=0;entryDy=0;entryPerimeter=0;exitX=0.28;exitY=0.5;exitDx=0;exitDy=0;exitPerimeter=0;" parent="1" source="CcqRgjcuu0jam1b1uMW6-30" target="CcqRgjcuu0jam1b1uMW6-3" edge="1">
          <mxGeometry width="50" height="50" relative="1" as="geometry">
            <mxPoint x="570" y="467" as="sourcePoint" />
            <mxPoint x="620" y="417" as="targetPoint" />
          </mxGeometry>
        </mxCell>
        <mxCell id="6IX21JZKE8CMq9LOXgGr-17" value="" style="endArrow=none;html=1;rounded=0;entryX=0.98;entryY=0.5;entryDx=0;entryDy=0;entryPerimeter=0;exitX=0.16;exitY=0.5;exitDx=0;exitDy=0;exitPerimeter=0;" parent="1" source="CcqRgjcuu0jam1b1uMW6-29" target="CcqRgjcuu0jam1b1uMW6-3" edge="1">
          <mxGeometry width="50" height="50" relative="1" as="geometry">
            <mxPoint x="570" y="467" as="sourcePoint" />
            <mxPoint x="620" y="417" as="targetPoint" />
          </mxGeometry>
        </mxCell>
        <mxCell id="6IX21JZKE8CMq9LOXgGr-18" value="" style="endArrow=none;html=1;rounded=0;entryX=0.98;entryY=0.5;entryDx=0;entryDy=0;entryPerimeter=0;exitX=0.16;exitY=0.5;exitDx=0;exitDy=0;exitPerimeter=0;" parent="1" source="CcqRgjcuu0jam1b1uMW6-28" target="CcqRgjcuu0jam1b1uMW6-3" edge="1">
          <mxGeometry width="50" height="50" relative="1" as="geometry">
            <mxPoint x="570" y="467" as="sourcePoint" />
            <mxPoint x="620" y="417" as="targetPoint" />
          </mxGeometry>
        </mxCell>
        <mxCell id="6IX21JZKE8CMq9LOXgGr-19" value="" style="endArrow=none;html=1;rounded=0;entryX=0.98;entryY=0.5;entryDx=0;entryDy=0;entryPerimeter=0;exitX=0.16;exitY=0.5;exitDx=0;exitDy=0;exitPerimeter=0;" parent="1" source="CcqRgjcuu0jam1b1uMW6-27" target="CcqRgjcuu0jam1b1uMW6-3" edge="1">
          <mxGeometry width="50" height="50" relative="1" as="geometry">
            <mxPoint x="570" y="467" as="sourcePoint" />
            <mxPoint x="620" y="417" as="targetPoint" />
          </mxGeometry>
        </mxCell>
        <mxCell id="6IX21JZKE8CMq9LOXgGr-20" value="" style="endArrow=none;html=1;rounded=0;entryX=0.98;entryY=0.5;entryDx=0;entryDy=0;entryPerimeter=0;exitX=0.16;exitY=0.5;exitDx=0;exitDy=0;exitPerimeter=0;" parent="1" source="CcqRgjcuu0jam1b1uMW6-26" target="CcqRgjcuu0jam1b1uMW6-3" edge="1">
          <mxGeometry width="50" height="50" relative="1" as="geometry">
            <mxPoint x="570" y="467" as="sourcePoint" />
            <mxPoint x="620" y="417" as="targetPoint" />
          </mxGeometry>
        </mxCell>
        <mxCell id="c2ib2R5SYT6zTNgJE4Cd-1" value="" style="shape=mxgraph.cisco.computers_and_peripherals.laptop;sketch=0;html=1;pointerEvents=1;dashed=0;fillColor=#036897;strokeColor=#ffffff;strokeWidth=2;verticalLabelPosition=bottom;verticalAlign=top;align=center;outlineConnect=0;" vertex="1" parent="1">
          <mxGeometry x="77" y="787" width="90" height="61" as="geometry" />
        </mxCell>
        <mxCell id="c2ib2R5SYT6zTNgJE4Cd-2" value="" style="shape=mxgraph.cisco.computers_and_peripherals.laptop;sketch=0;html=1;pointerEvents=1;dashed=0;fillColor=#036897;strokeColor=#ffffff;strokeWidth=2;verticalLabelPosition=bottom;verticalAlign=top;align=center;outlineConnect=0;" vertex="1" parent="1">
          <mxGeometry x="911" y="787" width="90" height="61" as="geometry" />
        </mxCell>
        <mxCell id="c2ib2R5SYT6zTNgJE4Cd-3" value="" style="endArrow=none;html=1;rounded=0;exitX=0.83;exitY=0.5;exitDx=0;exitDy=0;exitPerimeter=0;entryX=0;entryY=0.5;entryDx=0;entryDy=0;entryPerimeter=0;" edge="1" parent="1" source="CcqRgjcuu0jam1b1uMW6-8" target="CcqRgjcuu0jam1b1uMW6-5">
          <mxGeometry width="50" height="50" relative="1" as="geometry">
            <mxPoint x="570" y="467" as="sourcePoint" />
            <mxPoint x="620" y="417" as="targetPoint" />
          </mxGeometry>
        </mxCell>
        <mxCell id="c2ib2R5SYT6zTNgJE4Cd-6" value="" style="endArrow=none;html=1;rounded=0;exitX=0.83;exitY=0.5;exitDx=0;exitDy=0;exitPerimeter=0;entryX=0;entryY=0.5;entryDx=0;entryDy=0;entryPerimeter=0;" edge="1" parent="1" source="CcqRgjcuu0jam1b1uMW6-10" target="CcqRgjcuu0jam1b1uMW6-5">
          <mxGeometry width="50" height="50" relative="1" as="geometry">
            <mxPoint x="570" y="467" as="sourcePoint" />
            <mxPoint x="620" y="417" as="targetPoint" />
          </mxGeometry>
        </mxCell>
        <mxCell id="c2ib2R5SYT6zTNgJE4Cd-7" value="" style="endArrow=none;html=1;rounded=0;exitX=0.86;exitY=0.85;exitDx=0;exitDy=0;exitPerimeter=0;entryX=0;entryY=0.5;entryDx=0;entryDy=0;entryPerimeter=0;" edge="1" parent="1" source="CcqRgjcuu0jam1b1uMW6-11" target="CcqRgjcuu0jam1b1uMW6-5">
          <mxGeometry width="50" height="50" relative="1" as="geometry">
            <mxPoint x="570" y="467" as="sourcePoint" />
            <mxPoint x="620" y="417" as="targetPoint" />
          </mxGeometry>
        </mxCell>
        <mxCell id="c2ib2R5SYT6zTNgJE4Cd-8" value="" style="endArrow=none;html=1;rounded=0;entryX=0;entryY=0.5;entryDx=0;entryDy=0;entryPerimeter=0;exitX=0.83;exitY=0.5;exitDx=0;exitDy=0;exitPerimeter=0;" edge="1" parent="1" source="CcqRgjcuu0jam1b1uMW6-9" target="CcqRgjcuu0jam1b1uMW6-5">
          <mxGeometry width="50" height="50" relative="1" as="geometry">
            <mxPoint x="180" y="337" as="sourcePoint" />
            <mxPoint x="620" y="417" as="targetPoint" />
          </mxGeometry>
        </mxCell>
        <mxCell id="c2ib2R5SYT6zTNgJE4Cd-9" value="" style="endArrow=none;html=1;rounded=0;entryX=0.28;entryY=0.5;entryDx=0;entryDy=0;entryPerimeter=0;exitX=0.98;exitY=0.5;exitDx=0;exitDy=0;exitPerimeter=0;" edge="1" parent="1" source="CcqRgjcuu0jam1b1uMW6-3" target="c2ib2R5SYT6zTNgJE4Cd-2">
          <mxGeometry width="50" height="50" relative="1" as="geometry">
            <mxPoint x="570" y="467" as="sourcePoint" />
            <mxPoint x="620" y="417" as="targetPoint" />
          </mxGeometry>
        </mxCell>
        <mxCell id="c2ib2R5SYT6zTNgJE4Cd-13" value="" style="endArrow=none;html=1;rounded=0;entryX=0.12;entryY=0.9;entryDx=0;entryDy=0;entryPerimeter=0;exitX=1;exitY=0;exitDx=0;exitDy=0;exitPerimeter=0;" edge="1" parent="1" source="CcqRgjcuu0jam1b1uMW6-5" target="CcqRgjcuu0jam1b1uMW6-4">
          <mxGeometry width="50" height="50" relative="1" as="geometry">
            <mxPoint x="630" y="477" as="sourcePoint" />
            <mxPoint x="680" y="427" as="targetPoint" />
          </mxGeometry>
        </mxCell>
        <mxCell id="c2ib2R5SYT6zTNgJE4Cd-14" value="" style="endArrow=none;html=1;rounded=0;entryX=0.88;entryY=0.9;entryDx=0;entryDy=0;entryPerimeter=0;exitX=0;exitY=0.5;exitDx=0;exitDy=0;exitPerimeter=0;" edge="1" parent="1" source="CcqRgjcuu0jam1b1uMW6-3" target="CcqRgjcuu0jam1b1uMW6-4">
          <mxGeometry width="50" height="50" relative="1" as="geometry">
            <mxPoint x="630" y="477" as="sourcePoint" />
            <mxPoint x="680" y="427" as="targetPoint" />
          </mxGeometry>
        </mxCell>
        <mxCell id="c2ib2R5SYT6zTNgJE4Cd-15" value="R01" style="text;html=1;align=center;verticalAlign=middle;whiteSpace=wrap;rounded=0;" vertex="1" parent="1">
          <mxGeometry x="509" y="272" width="60" height="30" as="geometry" />
        </mxCell>
        <mxCell id="c2ib2R5SYT6zTNgJE4Cd-16" value="S01" style="text;html=1;align=center;verticalAlign=middle;whiteSpace=wrap;rounded=0;" vertex="1" parent="1">
          <mxGeometry x="300" y="475" width="60" height="30" as="geometry" />
        </mxCell>
        <mxCell id="c2ib2R5SYT6zTNgJE4Cd-17" value="S02" style="text;html=1;align=center;verticalAlign=middle;whiteSpace=wrap;rounded=0;" vertex="1" parent="1">
          <mxGeometry x="690" y="475" width="60" height="30" as="geometry" />
        </mxCell>
        <mxCell id="c2ib2R5SYT6zTNgJE4Cd-18" value="" style="endArrow=none;html=1;rounded=0;exitX=0.95;exitY=0.5;exitDx=0;exitDy=0;exitPerimeter=0;entryX=0;entryY=0.5;entryDx=0;entryDy=0;entryPerimeter=0;" edge="1" parent="1" source="c2ib2R5SYT6zTNgJE4Cd-1" target="CcqRgjcuu0jam1b1uMW6-5">
          <mxGeometry width="50" height="50" relative="1" as="geometry">
            <mxPoint x="580" y="450" as="sourcePoint" />
            <mxPoint x="630" y="400" as="targetPoint" />
          </mxGeometry>
        </mxCell>
        <mxCell id="c2ib2R5SYT6zTNgJE4Cd-19" value="" style="endArrow=none;html=1;rounded=0;entryX=0.28;entryY=0.5;entryDx=0;entryDy=0;entryPerimeter=0;exitX=0.98;exitY=0.5;exitDx=0;exitDy=0;exitPerimeter=0;" edge="1" parent="1" source="CcqRgjcuu0jam1b1uMW6-3" target="CcqRgjcuu0jam1b1uMW6-32">
          <mxGeometry width="50" height="50" relative="1" as="geometry">
            <mxPoint x="580" y="450" as="sourcePoint" />
            <mxPoint x="630" y="400" as="targetPoint" />
          </mxGeometry>
        </mxCell>
      </root>
    </mxGraphModel>
  </diagram>
</mxfile>
